<?xml version="1.0" encoding="utf-8" standalone="no"?>
<!DOCTYPE svg PUBLIC "-//W3C//DTD SVG 1.1//EN"
  "http://www.w3.org/Graphics/SVG/1.1/DTD/svg11.dtd">
<svg xmlns:xlink="http://www.w3.org/1999/xlink" width="334.8pt" height="332.64pt" viewBox="0 0 334.8 332.64" xmlns="http://www.w3.org/2000/svg" version="1.1">
 <metadata>
  <rdf:RDF xmlns:dc="http://purl.org/dc/elements/1.1/" xmlns:cc="http://creativecommons.org/ns#" xmlns:rdf="http://www.w3.org/1999/02/22-rdf-syntax-ns#">
   <cc:Work>
    <dc:type rdf:resource="http://purl.org/dc/dcmitype/StillImage"/>
    <dc:date>2024-12-09T21:44:52.717606</dc:date>
    <dc:format>image/svg+xml</dc:format>
    <dc:creator>
     <cc:Agent>
      <dc:title>Matplotlib v3.9.2, https://matplotlib.org/</dc:title>
     </cc:Agent>
    </dc:creator>
   </cc:Work>
  </rdf:RDF>
 </metadata>
 <defs>
  <style type="text/css">*{stroke-linejoin: round; stroke-linecap: butt}</style>
 </defs>
 <g id="figure_1">
  <g id="patch_1">
   <path d="M 0 332.64 
L 334.8 332.64 
L 334.8 0 
L 0 0 
L 0 332.64 
z
" style="fill: none"/>
  </g>
  <g id="axes_1">
   <g id="patch_2">
    <path d="M 0 332.64 
L 334.8 332.64 
L 334.8 -0 
L 0 -0 
L 0 332.64 
z
" style="fill: none"/>
   </g>
   <g id="PathCollection_1">
    <defs>
     <path id="md3a4c03faa" d="M 0 11.18034 
C 2.965061 11.18034 5.80908 10.002309 7.905694 7.905694 
C 10.002309 5.80908 11.18034 2.965061 11.18034 0 
C 11.18034 -2.965061 10.002309 -5.80908 7.905694 -7.905694 
C 5.80908 -10.002309 2.965061 -11.18034 0 -11.18034 
C -2.965061 -11.18034 -5.80908 -10.002309 -7.905694 -7.905694 
C -10.002309 -5.80908 -11.18034 -2.965061 -11.18034 0 
C -11.18034 2.965061 -10.002309 5.80908 -7.905694 7.905694 
C -5.80908 10.002309 -2.965061 11.18034 0 11.18034 
z
" style="stroke: #000000"/>
    </defs>
    <g clip-path="url(#pac85ea4595)">
     <use xlink:href="#md3a4c03faa" x="182.1312" y="235.50912" style="stroke: #000000"/>
    </g>
   </g>
   <g id="matplotlib.axis_1">
    <g id="xtick_1"/>
    <g id="xtick_2"/>
    <g id="xtick_3"/>
    <g id="xtick_4"/>
    <g id="xtick_5"/>
    <g id="xtick_6"/>
    <g id="xtick_7"/>
   </g>
   <g id="matplotlib.axis_2">
    <g id="ytick_1"/>
    <g id="ytick_2"/>
    <g id="ytick_3"/>
    <g id="ytick_4"/>
    <g id="ytick_5"/>
    <g id="ytick_6"/>
   </g>
   <g id="line2d_1">
    <path d="M -1 226.729946 
L 0.855265 210.107741 
L 3.00013 192.190734 
L 5.144995 175.576922 
L 7.289859 160.216871 
L 9.434724 146.062194 
L 11.579589 133.065541 
L 13.724454 121.18059 
L 15.869319 110.362037 
L 18.014184 100.565586 
L 20.159049 91.747938 
L 22.303914 83.866786 
L 24.448778 76.880796 
L 26.593643 70.749608 
L 28.738508 65.433816 
L 30.883373 60.894967 
L 33.028238 57.095543 
L 35.173103 53.998959 
L 37.317968 51.569547 
L 38.3904 50.594133 
L 39.462832 49.772549 
L 40.535265 49.100589 
L 41.607697 48.574106 
L 42.68013 48.189005 
L 43.752562 47.941249 
L 44.824995 47.826854 
L 45.897427 47.841891 
L 46.969859 47.982483 
L 48.042292 48.244811 
L 50.187157 49.119651 
L 52.332022 50.436902 
L 54.476886 52.167897 
L 56.621751 54.284798 
L 58.766616 56.760588 
L 60.911481 59.569061 
L 63.056346 62.684812 
L 66.273643 67.880957 
L 69.490941 73.633492 
L 72.708238 79.866513 
L 76.997968 88.80055 
L 81.287697 98.300411 
L 86.649859 110.744777 
L 95.229319 131.355418 
L 105.953643 157.078186 
L 112.388238 171.903107 
L 117.7504 183.666018 
L 122.04013 192.595812 
L 126.329859 201.037367 
L 130.619589 208.94297 
L 134.909319 216.272761 
L 138.126616 221.372502 
L 141.343914 226.119052 
L 144.561211 230.503656 
L 147.778508 234.519694 
L 150.995805 238.162605 
L 154.213103 241.429811 
L 157.4304 244.320641 
L 160.647697 246.836261 
L 163.864995 248.979593 
L 167.082292 250.755246 
L 170.299589 252.169437 
L 173.516886 253.229916 
L 176.734184 253.945895 
L 179.951481 254.32797 
L 183.168778 254.388045 
L 186.386076 254.139261 
L 189.603373 253.595918 
L 192.82067 252.773403 
L 196.037968 251.688111 
L 199.255265 250.357373 
L 202.472562 248.799381 
L 205.689859 247.033114 
L 209.979589 244.38823 
L 214.269319 241.456547 
L 219.631481 237.465075 
L 226.066076 232.329293 
L 238.935265 221.612764 
L 246.442292 215.552285 
L 251.804454 211.508925 
L 256.094184 208.523259 
L 260.383914 205.813294 
L 263.601211 203.990925 
L 266.818508 202.370575 
L 270.035805 200.971213 
L 273.253103 199.811024 
L 276.4704 198.907329 
L 279.687697 198.276516 
L 282.904995 197.93396 
L 286.122292 197.893949 
L 289.339589 198.169612 
L 292.556886 198.772841 
L 295.774184 199.714219 
L 298.991481 201.002943 
L 302.208778 202.646748 
L 305.426076 204.651836 
L 308.643373 207.022799 
L 311.86067 209.762542 
L 315.077968 212.872211 
L 318.295265 216.35112 
L 321.512562 220.196669 
L 324.729859 224.404278 
L 327.947157 228.967304 
L 331.164454 233.876973 
L 334.381751 239.122301 
L 335.8 241.541624 
L 335.8 241.541624 
" clip-path="url(#pac85ea4595)" style="fill: none; stroke: #000000; stroke-width: 15; stroke-linecap: square"/>
   </g>
   <g id="patch_3">
    <path d="M 0 332.64 
L 0 -0 
" style="fill: none; stroke: #000000; stroke-width: 30; stroke-linejoin: miter; stroke-linecap: square"/>
   </g>
   <g id="patch_4">
    <path d="M 334.8 332.64 
L 334.8 -0 
" style="fill: none; stroke: #000000; stroke-width: 30; stroke-linejoin: miter; stroke-linecap: square"/>
   </g>
   <g id="patch_5">
    <path d="M 0 332.64 
L 334.8 332.64 
" style="fill: none; stroke: #000000; stroke-width: 30; stroke-linejoin: miter; stroke-linecap: square"/>
   </g>
   <g id="patch_6">
    <path d="M 0 -0 
L 334.8 -0 
" style="fill: none; stroke: #000000; stroke-width: 30; stroke-linejoin: miter; stroke-linecap: square"/>
   </g>
  </g>
 </g>
 <defs>
  <clipPath id="pac85ea4595">
   <rect x="0" y="-0" width="334.8" height="332.64"/>
  </clipPath>
 </defs>
</svg>
